<svg xmlns="http://www.w3.org/2000/svg" fill="none" height="35.28" width="35" class="text-white" data-testid="logo" viewBox="0 0 115 117"><g><path d="M112.613 35.1131L95.613 90.4131C91.813 102.713 78.613 109.713 66.313 106.013L54.713 102.413C44.613 99.3131 38.113 89.9131 38.113 79.8131C40.813 79.7131 43.4131 78.9131 45.9131 77.6131L60.313 69.9131C69.613 65.0131 73.113 53.5131 68.213 44.2131L55.313 20.0131L56.0131 17.8131C59.8131 5.51306 73.013 -1.48693 85.313 2.21307L96.9131 5.81306C109.413 9.61306 116.413 22.8131 112.613 35.1131Z" fill="currentColor" stroke="transparent"/><path d="M60.5131 69.9131L46.113 77.6131C43.613 78.9131 40.913 79.6131 38.313 79.8131C38.313 77.6131 38.613 75.3131 39.313 73.1131L55.613 20.0131L68.5131 44.2131C73.3131 53.5131 69.7131 65.0131 60.5131 69.9131Z" fill="#FF8389" stroke="transparent"/><path d="M55.4131 20.0131L39.1131 73.1131C38.4131 75.3131 38.1131 77.6131 38.1131 79.8131C30.9131 80.2131 23.813 76.5131 20.313 69.7131L2.21306 35.6131C-2.68694 26.3131 0.813089 14.8131 10.1131 9.91307L24.5131 2.21307C33.8131 -2.68693 45.3131 0.813068 50.2131 10.1131L55.4131 20.0131Z" fill="#FFCD2E" stroke="transparent"/></g><script xmlns="" id="dsers-extension-inject-script-dsers-v3-prod" tab-id="1928108096"/></svg>