<svg fill="none" height="35.28" width="60" xmlns="http://www.w3.org/2000/svg" class="text-white" data-testid="logo" viewBox="0 0 70 117"><g><path d="M112.613 35.1131L95.613 90.4131C91.813 102.713 78.613 109.713 66.313 106.013L54.713 102.413C44.613 99.3131 38.113 89.9131 38.113 79.8131C40.813 79.7131 43.4131 78.9131 45.9131 77.6131L60.313 69.9131C69.613 65.0131 73.113 53.5131 68.213 44.2131L55.313 20.0131L56.0131 17.8131C59.8131 5.51306 73.013 -1.48693 85.313 2.21307L96.9131 5.81306C109.413 9.61306 116.413 22.8131 112.613 35.1131Z" fill="currentColor" stroke="transparent"></path><path d="M60.5131 69.9131L46.113 77.6131C43.613 78.9131 40.913 79.6131 38.313 79.8131C38.313 77.6131 38.613 75.3131 39.313 73.1131L55.613 20.0131L68.5131 44.2131C73.3131 53.5131 69.7131 65.0131 60.5131 69.9131Z" fill="#FF8389" stroke="transparent"></path><path d="M55.4131 20.0131L39.1131 73.1131C38.4131 75.3131 38.1131 77.6131 38.1131 79.8131C30.9131 80.2131 23.813 76.5131 20.313 69.7131L2.21306 35.6131C-2.68694 26.3131 0.813089 14.8131 10.1131 9.91307L24.5131 2.21307C33.8131 -2.68693 45.3131 0.813068 50.2131 10.1131L55.4131 20.0131Z" fill="#FFCD2E" stroke="transparent"></path><path d="M11.9132 97.9131C11.0132 97.4131 10.4131 96.713 9.81311 95.813C9.31311 94.913 9.01318 94.013 9.01318 93.013C9.01318 92.013 9.31311 91.013 9.81311 90.213C10.3131 89.313 11.0132 88.7131 11.9132 88.1131C12.8132 87.6131 13.7131 87.313 14.7131 87.313C15.7131 87.313 16.7132 87.6131 17.5132 88.1131C18.4132 88.6131 19.0132 89.313 19.6132 90.213C20.1132 91.113 20.4132 92.013 20.4132 93.013C20.4132 94.313 20.0131 95.513 19.2131 96.513C18.9131 96.913 18.6131 97.2131 18.3131 97.4131C17.3131 98.2131 16.1131 98.6131 14.8131 98.6131C13.7131 98.7131 12.8132 98.4131 11.9132 97.9131ZM17.1132 97.213C17.8132 96.813 18.4131 96.213 18.8131 95.513C19.2131 94.813 19.4132 94.0131 19.4132 93.1131C19.4132 92.2131 19.2131 91.513 18.8131 90.713C18.4131 90.013 17.8132 89.413 17.1132 89.013C16.4132 88.613 15.6131 88.4131 14.8131 88.4131C14.0131 88.4131 13.2132 88.613 12.5132 89.013C11.8132 89.413 11.2131 90.013 10.8131 90.713C10.4131 91.413 10.2131 92.2131 10.2131 93.1131C10.2131 94.0131 10.4131 94.713 10.8131 95.513C11.2131 96.213 11.8132 96.813 12.5132 97.213C13.2132 97.613 14.0131 97.813 14.8131 97.813C15.6131 97.813 16.4132 97.613 17.1132 97.213ZM12.9132 95.6131C12.8132 95.5131 12.8131 95.5131 12.8131 95.4131V90.713C12.8131 90.613 12.8132 90.513 12.9132 90.513C13.0132 90.413 13.0132 90.4131 13.1132 90.4131H15.0132C15.6132 90.4131 16.1132 90.513 16.4132 90.813C16.8132 91.113 16.9132 91.5131 16.9132 92.1131C16.9132 92.5131 16.8132 92.8131 16.6132 93.1131C16.4132 93.4131 16.2131 93.613 15.8131 93.713L16.8131 95.313C16.8131 95.413 16.9132 95.413 16.9132 95.513C16.9132 95.613 16.9131 95.713 16.8131 95.713C16.7131 95.813 16.7132 95.813 16.6132 95.813H16.4132C16.2132 95.813 16.1132 95.713 16.0132 95.513L14.9132 93.813H13.6132V95.4131C13.6132 95.5131 13.6132 95.6131 13.5132 95.6131C13.4132 95.7131 13.4131 95.713 13.3131 95.713H13.1132C13.0132 95.713 12.9132 95.7131 12.9132 95.6131ZM14.9132 92.9131C15.7132 92.9131 16.0132 92.6131 16.0132 92.1131C16.0132 91.5131 15.6132 91.313 14.9132 91.313H13.6132V93.013H14.9132V92.9131Z" fill="currentColor" stroke="transparent"></path></g></svg>